<?xml version="1.0" encoding="UTF-8" standalone="no"?>
<!DOCTYPE svg PUBLIC "-//W3C//DTD SVG 1.1//EN"
 "http://www.w3.org/Graphics/SVG/1.1/DTD/svg11.dtd">
<!-- Generated by graphviz version 2.38.0 (20140413.2041)
 -->
<!-- Title: G Pages: 1 -->
<svg width="321pt" height="421pt"
 viewBox="0.00 0.00 321.00 421.00" xmlns="http://www.w3.org/2000/svg" xmlns:xlink="http://www.w3.org/1999/xlink">
<g id="graph0" class="graph" transform="scale(1 1) rotate(0) translate(4 417)">
<title>G</title>
<!-- start -->
<g id="node1" class="node"><title>start</title>
<ellipse fill="none" stroke="black" cx="256" cy="-382" rx="18" ry="18"/>
<text text-anchor="middle" x="226.5" y="-403.4" font-family="Helvetica,sans-Serif" font-size="12.00">start</text>
</g>
<!-- awaiting_payment -->
<g id="node2" class="node"><title>awaiting_payment</title>
<polygon fill="none" stroke="black" points="313,-309 199,-309 199,-273 313,-273 313,-309"/>
<text text-anchor="middle" x="256" y="-287.9" font-family="Helvetica,sans-Serif" font-size="12.00">awaiting_payment</text>
</g>
<!-- start&#45;&gt;awaiting_payment -->
<g id="edge1" class="edge"><title>start&#45;&gt;awaiting_payment</title>
<path fill="none" stroke="black" d="M256,-363.84C256,-351.281 256,-333.979 256,-319.502"/>
<polygon fill="black" stroke="black" points="259.5,-319.107 256,-309.107 252.5,-319.107 259.5,-319.107"/>
<text text-anchor="middle" x="273" y="-334" font-family="Helvetica,sans-Serif" font-size="10.00"> create </text>
</g>
<!-- awaiting_shippment -->
<g id="node3" class="node"><title>awaiting_shippment</title>
<polygon fill="none" stroke="black" points="220,-218 96,-218 96,-182 220,-182 220,-218"/>
<text text-anchor="middle" x="158" y="-196.9" font-family="Helvetica,sans-Serif" font-size="12.00">awaiting_shippment</text>
</g>
<!-- awaiting_payment&#45;&gt;awaiting_shippment -->
<g id="edge2" class="edge"><title>awaiting_payment&#45;&gt;awaiting_shippment</title>
<path fill="none" stroke="black" d="M237.105,-272.84C222.191,-259.296 201.204,-240.236 184.594,-225.152"/>
<polygon fill="black" stroke="black" points="186.593,-222.239 176.837,-218.107 181.887,-227.421 186.593,-222.239"/>
<text text-anchor="middle" x="224" y="-243" font-family="Helvetica,sans-Serif" font-size="10.00"> pay </text>
</g>
<!-- canceled -->
<g id="node4" class="node"><title>canceled</title>
<polygon fill="none" stroke="black" points="258.5,-36 193.5,-36 193.5,-0 258.5,-0 258.5,-36"/>
<text text-anchor="middle" x="226" y="-14.9" font-family="Helvetica,sans-Serif" font-size="12.00">canceled</text>
</g>
<!-- awaiting_payment&#45;&gt;canceled -->
<g id="edge3" class="edge"><title>awaiting_payment&#45;&gt;canceled</title>
<path fill="none" stroke="black" d="M256.778,-272.81C258.026,-238.14 259.298,-157.471 248,-91 245.399,-75.7002 240.479,-59.1044 235.949,-45.7059"/>
<polygon fill="black" stroke="black" points="239.214,-44.4397 232.607,-36.1577 232.608,-46.7525 239.214,-44.4397"/>
<text text-anchor="middle" x="273.5" y="-152" font-family="Helvetica,sans-Serif" font-size="10.00"> cancel </text>
</g>
<!-- awaiting_refund -->
<g id="node5" class="node"><title>awaiting_refund</title>
<polygon fill="none" stroke="black" points="102,-127 7.10543e-15,-127 7.10543e-15,-91 102,-91 102,-127"/>
<text text-anchor="middle" x="51" y="-105.9" font-family="Helvetica,sans-Serif" font-size="12.00">awaiting_refund</text>
</g>
<!-- awaiting_shippment&#45;&gt;awaiting_refund -->
<g id="edge4" class="edge"><title>awaiting_shippment&#45;&gt;awaiting_refund</title>
<path fill="none" stroke="black" d="M137.369,-181.84C120.938,-168.173 97.7544,-148.889 79.5428,-133.741"/>
<polygon fill="black" stroke="black" points="81.4936,-130.811 71.5673,-127.107 77.0173,-136.193 81.4936,-130.811"/>
<text text-anchor="middle" x="128.5" y="-152" font-family="Helvetica,sans-Serif" font-size="10.00"> cancel </text>
</g>
<!-- shipped -->
<g id="node6" class="node"><title>shipped</title>
<polygon fill="none" stroke="black" points="219.5,-127 160.5,-127 160.5,-91 219.5,-91 219.5,-127"/>
<text text-anchor="middle" x="190" y="-105.9" font-family="Helvetica,sans-Serif" font-size="12.00">shipped</text>
</g>
<!-- awaiting_shippment&#45;&gt;shipped -->
<g id="edge5" class="edge"><title>awaiting_shippment&#45;&gt;shipped</title>
<path fill="none" stroke="black" d="M164.17,-181.84C168.774,-169.035 175.151,-151.299 180.417,-136.654"/>
<polygon fill="black" stroke="black" points="183.759,-137.702 183.849,-127.107 177.172,-135.333 183.759,-137.702"/>
<text text-anchor="middle" x="188.5" y="-152" font-family="Helvetica,sans-Serif" font-size="10.00"> ship </text>
</g>
<!-- awaiting_refund&#45;&gt;canceled -->
<g id="edge6" class="edge"><title>awaiting_refund&#45;&gt;canceled</title>
<path fill="none" stroke="black" d="M84.7418,-90.8399C113.095,-76.4202 153.744,-55.7473 184.164,-40.2768"/>
<polygon fill="black" stroke="black" points="185.924,-43.3083 193.251,-35.6554 182.751,-37.0688 185.924,-43.3083"/>
<text text-anchor="middle" x="166" y="-61" font-family="Helvetica,sans-Serif" font-size="10.00"> refund </text>
</g>
</g>
</svg>
