<?xml version="1.0" encoding="UTF-8" standalone="no"?>
<!DOCTYPE svg PUBLIC "-//W3C//DTD SVG 1.1//EN"
 "http://www.w3.org/Graphics/SVG/1.1/DTD/svg11.dtd">
<!-- Generated by graphviz version 2.38.0 (20140413.2041)
 -->
<!-- Title: G Pages: 1 -->
<svg width="384pt" height="512pt"
 viewBox="0.00 0.00 383.50 512.00" xmlns="http://www.w3.org/2000/svg" xmlns:xlink="http://www.w3.org/1999/xlink">
<g id="graph0" class="graph" transform="scale(1 1) rotate(0) translate(4 508)">
<title>G</title>
<polygon fill="white" stroke="none" points="-4,4 -4,-508 379.5,-508 379.5,4 -4,4"/>
<!-- start -->
<g id="node1" class="node"><title>start</title>
<ellipse fill="none" stroke="black" cx="187.5" cy="-473" rx="18" ry="18"/>
<text text-anchor="middle" x="158" y="-494.4" font-family="Helvetica,sans-Serif" font-size="12.00">start</text>
</g>
<!-- awaiting_approval -->
<g id="node2" class="node"><title>awaiting_approval</title>
<polygon fill="none" stroke="black" points="115,-400 7.10543e-15,-400 7.10543e-15,-364 115,-364 115,-400"/>
<text text-anchor="middle" x="57.5" y="-378.9" font-family="Helvetica,sans-Serif" font-size="12.00">awaiting_approval</text>
</g>
<!-- start&#45;&gt;awaiting_approval -->
<g id="edge1" class="edge"><title>start&#45;&gt;awaiting_approval</title>
<path fill="none" stroke="black" d="M173.091,-462.135C153.406,-448.659 117.52,-424.091 90.936,-405.891"/>
<polygon fill="black" stroke="black" points="92.8928,-402.989 82.664,-400.228 88.9383,-408.765 92.8928,-402.989"/>
<text text-anchor="middle" x="147.5" y="-425" font-family="Helvetica,sans-Serif" font-size="10.00"> create </text>
</g>
<!-- awaiting_payment -->
<g id="node3" class="node"><title>awaiting_payment</title>
<polygon fill="none" stroke="black" points="288.5,-309 174.5,-309 174.5,-273 288.5,-273 288.5,-309"/>
<text text-anchor="middle" x="231.5" y="-287.9" font-family="Helvetica,sans-Serif" font-size="12.00">awaiting_payment</text>
</g>
<!-- start&#45;&gt;awaiting_payment -->
<g id="edge2" class="edge"><title>start&#45;&gt;awaiting_payment</title>
<path fill="none" stroke="lightgrey" d="M191.561,-455.389C199.183,-424.204 215.698,-356.646 224.925,-318.898"/>
<polygon fill="lightgrey" stroke="lightgrey" points="228.346,-319.641 227.321,-309.096 221.546,-317.979 228.346,-319.641"/>
<text text-anchor="middle" x="245" y="-385" font-family="Helvetica,sans-Serif" font-size="10.00" fill="lightgrey"> create </text>
<text text-anchor="middle" x="245" y="-374" font-family="Helvetica,sans-Serif" font-size="10.00" fill="lightgrey"> (deprecated) </text>
</g>
<!-- awaiting_approval&#45;&gt;awaiting_payment -->
<g id="edge4" class="edge"><title>awaiting_approval&#45;&gt;awaiting_payment</title>
<path fill="none" stroke="black" d="M86.4367,-363.953C103.687,-353.99 126.127,-341.375 146.5,-331 158.375,-324.953 171.373,-318.774 183.553,-313.17"/>
<polygon fill="black" stroke="black" points="185.031,-316.343 192.676,-309.008 182.125,-309.975 185.031,-316.343"/>
<text text-anchor="middle" x="167" y="-334" font-family="Helvetica,sans-Serif" font-size="10.00"> approve </text>
</g>
<!-- canceled -->
<g id="node4" class="node"><title>canceled</title>
<polygon fill="none" stroke="black" points="294,-36 229,-36 229,-0 294,-0 294,-36"/>
<text text-anchor="middle" x="261.5" y="-14.9" font-family="Helvetica,sans-Serif" font-size="12.00">canceled</text>
</g>
<!-- awaiting_approval&#45;&gt;canceled -->
<g id="edge3" class="edge"><title>awaiting_approval&#45;&gt;canceled</title>
<path fill="none" stroke="black" d="M39.5566,-363.711C24.1809,-346.967 4.5,-320.054 4.5,-292 4.5,-292 4.5,-292 4.5,-108 4.5,-63.2206 145.578,-35.9401 218.683,-24.8096"/>
<polygon fill="black" stroke="black" points="219.574,-28.2158 228.951,-23.2844 218.545,-21.2918 219.574,-28.2158"/>
<text text-anchor="middle" x="22" y="-197.5" font-family="Helvetica,sans-Serif" font-size="10.00"> cancel </text>
</g>
<!-- awaiting_payment&#45;&gt;canceled -->
<g id="edge6" class="edge"><title>awaiting_payment&#45;&gt;canceled</title>
<path fill="none" stroke="black" d="M263.244,-272.733C283.312,-260.169 308.095,-241.305 322.5,-218 344.224,-182.855 337.255,-168.098 341.5,-127 343.144,-111.085 347.509,-105.829 341.5,-91 333.373,-70.9439 316.226,-54.2988 299.884,-42.0832"/>
<polygon fill="black" stroke="black" points="301.644,-39.04 291.464,-36.1043 297.591,-44.7476 301.644,-39.04"/>
<text text-anchor="middle" x="358" y="-152" font-family="Helvetica,sans-Serif" font-size="10.00"> cancel </text>
</g>
<!-- awaiting_shippment -->
<g id="node5" class="node"><title>awaiting_shippment</title>
<polygon fill="none" stroke="black" points="293.5,-218 169.5,-218 169.5,-182 293.5,-182 293.5,-218"/>
<text text-anchor="middle" x="231.5" y="-196.9" font-family="Helvetica,sans-Serif" font-size="12.00">awaiting_shippment</text>
</g>
<!-- awaiting_payment&#45;&gt;awaiting_shippment -->
<g id="edge5" class="edge"><title>awaiting_payment&#45;&gt;awaiting_shippment</title>
<path fill="none" stroke="black" d="M231.5,-272.84C231.5,-260.281 231.5,-242.979 231.5,-228.502"/>
<polygon fill="black" stroke="black" points="235,-228.107 231.5,-218.107 228,-228.107 235,-228.107"/>
<text text-anchor="middle" x="242.5" y="-243" font-family="Helvetica,sans-Serif" font-size="10.00"> pay </text>
</g>
<!-- awaiting_refund -->
<g id="node6" class="node"><title>awaiting_refund</title>
<polygon fill="none" stroke="black" points="312.5,-127 210.5,-127 210.5,-91 312.5,-91 312.5,-127"/>
<text text-anchor="middle" x="261.5" y="-105.9" font-family="Helvetica,sans-Serif" font-size="12.00">awaiting_refund</text>
</g>
<!-- awaiting_shippment&#45;&gt;awaiting_refund -->
<g id="edge7" class="edge"><title>awaiting_shippment&#45;&gt;awaiting_refund</title>
<path fill="none" stroke="black" d="M237.284,-181.84C241.601,-169.035 247.579,-151.299 252.516,-136.654"/>
<polygon fill="black" stroke="black" points="255.856,-137.702 255.733,-127.107 249.223,-135.466 255.856,-137.702"/>
<text text-anchor="middle" x="266" y="-152" font-family="Helvetica,sans-Serif" font-size="10.00"> cancel </text>
</g>
<!-- shipped -->
<g id="node7" class="node"><title>shipped</title>
<polygon fill="none" stroke="black" points="152,-127 93,-127 93,-91 152,-91 152,-127"/>
<text text-anchor="middle" x="122.5" y="-105.9" font-family="Helvetica,sans-Serif" font-size="12.00">shipped</text>
</g>
<!-- awaiting_shippment&#45;&gt;shipped -->
<g id="edge8" class="edge"><title>awaiting_shippment&#45;&gt;shipped</title>
<path fill="none" stroke="black" d="M210.484,-181.84C193.67,-168.112 169.915,-148.715 151.326,-133.537"/>
<polygon fill="black" stroke="black" points="153.411,-130.721 143.452,-127.107 148.984,-136.143 153.411,-130.721"/>
<text text-anchor="middle" x="197" y="-152" font-family="Helvetica,sans-Serif" font-size="10.00"> ship </text>
</g>
<!-- awaiting_refund&#45;&gt;canceled -->
<g id="edge9" class="edge"><title>awaiting_refund&#45;&gt;canceled</title>
<path fill="none" stroke="black" d="M261.5,-90.8399C261.5,-78.2813 261.5,-60.9794 261.5,-46.5022"/>
<polygon fill="black" stroke="black" points="265,-46.1074 261.5,-36.1074 258,-46.1074 265,-46.1074"/>
<text text-anchor="middle" x="278.5" y="-61" font-family="Helvetica,sans-Serif" font-size="10.00"> refund </text>
</g>
</g>
</svg>
